<svg xmlns="http://www.w3.org/2000/svg" xmlns:xlink="http://www.w3.org/1999/xlink" width="31" height="44" viewBox="0 0 31 44">
    <defs>
        <path id="a" d="M.173.045h.932v.986H.173z"/>
        <path id="c" d="M0 .1h15.026v18.038H0z"/>
    </defs>
    <g fill="none" fill-rule="evenodd">
        <path fill="#D4D7DC" fill-rule="nonzero" d="M30.377 15.56C30.377 7.103 23.58.254 15.188.254 6.797.255 0 7.104 0 15.56c0 11.479 15.188 28.058 15.188 28.058s15.189-16.58 15.189-28.058z"/>
        <path fill="#FFF" d="M14.016 25.338H8.738v-3.515h4.708zM9.17 25.583a.48.48 0 0 1 .465.493.48.48 0 0 1-.466.493.48.48 0 0 1-.465-.493.48.48 0 0 1 .465-.493"/>
        <g transform="translate(13.241 25.538)">
            <mask id="b" fill="#fff">
                <use xlink:href="#a"/>
            </mask>
            <path fill="#FFF" d="M.639.045a.48.48 0 0 1 .466.493.48.48 0 0 1-.466.493.48.48 0 0 1-.466-.493A.48.48 0 0 1 .64.045" mask="url(#b)"/>
        </g>
        <g transform="translate(7.594 8.43)">
            <mask id="d" fill="#fff">
                <use xlink:href="#c"/>
            </mask>
            <path fill="#FFF" d="M.85 10.447H0v4.149h.764v-1.583H3.39l.764-2.566h-.785l1.135-4.835 1.67 1.153c.11.076.234.113.358.113a.644.644 0 0 0 .522-.273l1.693-2.298h.379L9.124 17.21c0 .512.393.928.877.928.485 0 .878-.416.878-.928V9.947h.546l-.003 7.263c0 .512.392.928.877.928.484 0 .877-.416.877-.928l.004-12.903h.534v5.409c0 .988 1.312.988 1.312 0V4.172c0-1.194-.917-2.15-2.025-2.15l-3.374.002c-.555 0-.99.243-1.284.548a3.787 3.787 0 0 0-.287.37L6.38 5.248 4.84 4.183 5.703.5a.336.336 0 0 0-.034-.244.304.304 0 0 0-.187-.146c-.161-.044-.329.065-.369.234l-.814 3.471a.634.634 0 0 0-.874.222.72.72 0 0 0 .191.963l.348.24-1.22 5.207H.85z" mask="url(#d)"/>
        </g>
        <path fill="#FFF" d="M20.387 8.275c0-.934-.716-1.692-1.599-1.692s-1.599.758-1.599 1.692c0 .935.716 1.693 1.6 1.693.882 0 1.598-.758 1.598-1.693"/>
    </g>
</svg>
