<svg xmlns="http://www.w3.org/2000/svg" width="30" height="30" viewBox="0 0 30 30">
    <g fill="none" fill-rule="evenodd">
        <circle cx="15" cy="15" r="15" fill="#FFF400"/>
        <path fill="#4A4A4A" d="M16.055 18.129h-2.638L13 8h3.436l-.38 10.129zm.445 3.627c0 .653-.14 1.107-.419 1.362-.279.255-.726.382-1.342.382-.673 0-1.13-.143-1.374-.428-.243-.285-.365-.723-.365-1.316 0-.624.129-1.072.387-1.346.257-.273.708-.41 1.352-.41.659 0 1.117.133 1.374.399.258.266.387.718.387 1.357z"/>
    </g>
</svg>
