<svg xmlns="http://www.w3.org/2000/svg" xmlns:xlink="http://www.w3.org/1999/xlink" width="31" height="44" viewBox="0 0 31 44">
    <defs>
        <path id="a" d="M8.86 7.907h12.61v16.58H8.86z"/>
    </defs>
    <g fill="none" fill-rule="evenodd">
        <path fill="#D4D7DC" fill-rule="nonzero" d="M30.377 15.56C30.377 7.103 23.58.254 15.188.254 6.797.255 0 7.104 0 15.56c0 11.479 15.188 28.058 15.188 28.058s15.189-16.58 15.189-28.058z"/>
        <mask id="b" fill="#fff">
            <use xlink:href="#a"/>
        </mask>
        <path fill="#FFF" d="M20.691 16.197s.22 2.57-1.789 3.896c0 0 3.932-7.66-4.472-12.186 0 0 1.182 1.973-1.586 4.344-2.312 1.973-7.814 8.489.27 12.236 0 0-3.274-4.211.793-6.532 0 0-1.552 2.453 1.232 4.526 1.654-1.691 1.215-2.553 1.215-2.553s2.396 1.89.625 4.559c0 0 6.733-1.592 3.712-8.29" mask="url(#b)"/>
    </g>
</svg>
