<svg xmlns="http://www.w3.org/2000/svg" xmlns:xlink="http://www.w3.org/1999/xlink" width="31" height="44" viewBox="0 0 31 44">
    <defs>
        <path id="a" d="M0 0h12.61v16.58H0z"/>
    </defs>
    <g fill="none" fill-rule="evenodd">
        <path fill="#3A4BC1" fill-rule="nonzero" d="M30.377 15.56C30.377 7.103 23.58.254 15.188.254 6.797.255 0 7.104 0 15.56c0 11.479 15.188 28.058 15.188 28.058s15.189-16.58 15.189-28.058z"/>
        <g transform="translate(8.86 7.907)">
            <mask id="b" fill="#fff">
                <use xlink:href="#a"/>
            </mask>
            <path fill="#FFF" d="M11.831 8.29s.22 2.57-1.788 3.896c0 0 3.932-7.66-4.473-12.186 0 0 1.182 1.973-1.586 4.344-2.312 1.973-7.813 8.489.27 12.236 0 0-3.274-4.212.793-6.533 0 0-1.552 2.454 1.232 4.527 1.654-1.692 1.215-2.554 1.215-2.554s2.397 1.89.625 4.56c0 0 6.733-1.592 3.712-8.29" mask="url(#b)"/>
        </g>
    </g>
</svg>
