<svg xmlns="http://www.w3.org/2000/svg" width="31" height="45" viewBox="0 0 31 45">
    <g fill="none" fill-rule="evenodd">
        <path fill="#3A4BC1" fill-rule="nonzero" d="M30.377 15.56C30.377 7.103 23.58.254 15.188.254 6.797.255 0 7.104 0 15.56c0 11.479 15.188 28.058 15.188 28.058s15.189-16.58 15.189-28.058z"/>
        <path fill="#FFF" d="M21.233 19.973c-1.227-.418-3.272-.917-6.045-.917-2.772 0-4.817.499-6.044.917-.927.316-1.55 1.155-1.55 2.088v2.18c0 .135.117.246.262.246h14.665c.144 0 .261-.11.261-.247v-2.179c0-.933-.622-1.772-1.55-2.088z"/>
        <ellipse cx="6.961" cy="18.748" fill="#3A4BC1" rx="4.43" ry="4.464"/>
        <path fill="#FFF" fill-rule="nonzero" d="M10.037 18.234l-.81-.108a2.36 2.36 0 0 0-.228-.552l.497-.655a.103.103 0 0 0-.009-.135l-.577-.582a.101.101 0 0 0-.134-.008l-.65.5a2.322 2.322 0 0 0-.547-.228l-.108-.817a.102.102 0 0 0-.101-.09h-.817a.102.102 0 0 0-.101.09l-.108.817c-.194.053-.377.13-.547.228l-.65-.5a.101.101 0 0 0-.134.008l-.578.582a.103.103 0 0 0-.009.135l.497.655a2.36 2.36 0 0 0-.227.551l-.81.11a.103.103 0 0 0-.089.101v.823c0 .052.038.095.089.102l.81.11c.053.194.13.379.227.55l-.497.655a.103.103 0 0 0 .01.135l.577.582a.102.102 0 0 0 .134.01l.65-.502c.17.099.353.176.547.229l.108.817c.007.051.05.09.101.09h.817a.102.102 0 0 0 .1-.09l.109-.817c.193-.053.377-.13.547-.229l.65.501a.102.102 0 0 0 .134-.009l.577-.582a.103.103 0 0 0 .01-.135l-.498-.655a2.36 2.36 0 0 0 .227-.55l.81-.11a.103.103 0 0 0 .09-.102v-.823a.103.103 0 0 0-.09-.102zm-3.076 1.44a.922.922 0 0 1-.918-.926c0-.511.41-.926.918-.926s.919.415.919.926a.922.922 0 0 1-.919.925z"/>
        <path fill="#FFF" d="M15.505 10.458c-2.272 0-4.114 1.856-4.114 4.145 0 2.29 1.842 4.145 4.114 4.145s4.113-1.856 4.113-4.145c0-2.29-1.841-4.145-4.113-4.145z"/>
    </g>
</svg>
