<svg xmlns="http://www.w3.org/2000/svg" width="31" height="44" viewBox="0 0 31 44">
    <g fill="none" fill-rule="evenodd">
        <path fill="#D4D7DC" fill-rule="nonzero" d="M30.377 15.304C30.377 6.85 23.58 0 15.188 0 6.797 0 0 6.849 0 15.304c0 11.479 15.188 28.058 15.188 28.058s15.189-16.58 15.189-28.058z"/>
        <path fill="#FFF" d="M15.664 7.162l6.682 11.693A.765.765 0 0 1 21.682 20H8.318a.765.765 0 0 1-.664-1.145l6.682-11.693a.765.765 0 0 1 1.328 0zm.027 8.411l.161-4.755h-1.458l.177 4.755h1.12zm.281 1.516c0-.282-.062-.482-.187-.6-.125-.117-.348-.175-.667-.175-.313 0-.531.06-.656.181-.125.12-.188.319-.188.594 0 .262.06.456.177.582.118.126.34.189.667.189.298 0 .515-.056.65-.169.136-.112.204-.313.204-.602z"/>
    </g>
</svg>
