<svg xmlns="http://www.w3.org/2000/svg" xmlns:xlink="http://www.w3.org/1999/xlink" width="31" height="44" viewBox="0 0 31 44">
    <defs>
        <path id="a" d="M0 .016h12.975V5.69H0z"/>
        <path id="c" d="M.01.022h11.227V10.15H.01z"/>
    </defs>
    <g fill="none" fill-rule="evenodd">
        <g fill="#D4D7DC">
            <path fill-rule="nonzero" d="M30.377 15.247C30.377 6.823 23.58 0 15.188 0 6.797 0 0 6.823 0 15.247 0 26.682 15.188 43.2 15.188 43.2s15.189-16.518 15.189-27.953z"/>
            <path d="M15.188 18.833l2.347 1.496-.623-2.82 2.073-1.898-2.73-.245-1.067-2.66-1.067 2.66-2.73.245 2.073 1.898-.622 2.82z"/>
        </g>
        <g transform="translate(9 17.058)">
            <mask id="b" fill="#fff">
                <use xlink:href="#a"/>
            </mask>
            <path fill="#FFF" d="M6.49 5.689S2.582 4.926.74 3.006C-.343 1.874-.167.514.81.019c0 0 .551 1.474 5.673 1.633 5.131-.161 5.68-1.636 5.68-1.636.976.498 1.159 1.86.068 2.987C10.395 4.926 6.49 5.69 6.49 5.69" mask="url(#b)"/>
        </g>
        <path fill="#FFF" d="M16.508 11.89c-.036-.118-.222-.22-.414-.168-.233.069-.266.23-.266.23s.23.011.374.052a.39.39 0 0 1 .21.142s.132-.14.096-.257M14.905 11.725c-.189-.057-.374.05-.413.167-.036.118.096.26.096.26s.069-.101.215-.142c.144-.041.372-.052.372-.052s-.036-.167-.27-.233"/>
        <g transform="translate(9.869 8.005)">
            <mask id="d" fill="#fff">
                <use xlink:href="#c"/>
            </mask>
            <path fill="#FFF" d="M3.756 1.545l.078-.038.021-.063c.117-.12.282-.27.33-.3a.612.612 0 0 0 .248-.28A.727.727 0 0 1 4.5.758a.532.532 0 0 1 .183-.02h.054c.099 0 .155-.046.215-.093l.177-.15c.03-.022.033-.03.051-.041l.069.003.108-.088a.814.814 0 0 1 .26-.15c.051.01.174.082.261.15l.108.088.069-.003c.018.011.02.016.05.041.111.093.156.137.177.15a.297.297 0 0 0 .216.093h.054c.117 0 .165.011.183.02.02.03.045.068.066.106.053.099.12.21.248.28.051.027.216.18.33.3l.02.063.078.038c.25.271-1.273.342-1.854.192-.593.15-2.111.08-1.866-.192m7.279 5.667c-.054-1.22-.362-3.276-1.39-4.545-1.03-1.27-2.094-1.37-2.094-1.37s-.284-.29-.392-.348c-.108-.057-.15-.221-.252-.34-.101-.117-.431-.087-.431-.092 0-.008-.042-.041-.21-.183C6.1.19 6.036.21 6.036.21S5.78 0 5.61 0c-.164 0-.425.21-.425.21s-.063-.019-.23.124c-.168.142-.21.18-.21.183 0 .008-.33-.027-.432.093-.101.118-.14.287-.251.34-.108.056-.393.346-.393.346s-1.066.102-2.093 1.37C.548 3.934.243 5.993.189 7.213.135 8.432 0 8.637 0 8.637s.68 1.49 5.613 1.49c4.934 0 5.614-1.49 5.614-1.49s-.141-.208-.192-1.425" mask="url(#d)"/>
        </g>
        <path fill="#D4D7DC" d="M15.6 15.4l-1.176.618.225-1.309-.951-.927 1.314-.191.588-1.191.588 1.191 1.314.191-.95.927.224 1.309z"/>
    </g>
</svg>
