<svg xmlns="http://www.w3.org/2000/svg" width="31" height="44" viewBox="0 0 31 44">
    <g fill="none" fill-rule="nonzero">
        <path fill="#3A4BC1" d="M30.377 15.56C30.377 7.103 23.58.254 15.188.254 6.797.255 0 7.104 0 15.56c0 11.479 15.188 28.058 15.188 28.058s15.189-16.58 15.189-28.058z"/>
        <path fill="#FFF" d="M21.027 11.263c-.173-.47-.645-.805-1.198-.805h-9.282c-.552 0-1.025.335-1.198.805l-1.755 4.775v6.376c0 .439.38.798.844.798h.844c.468 0 .844-.36.844-.798v-.797H20.25v.797c0 .439.38.798.844.798h.844c.468 0 .843-.36.843-.798v-6.376l-1.755-4.775zm-10.48 7.963c-.7 0-1.265-.534-1.265-1.196 0-.661.565-1.195 1.265-1.195s1.266.534 1.266 1.195c0 .662-.565 1.196-1.266 1.196zm9.282 0c-.7 0-1.266-.534-1.266-1.196 0-.661.566-1.195 1.266-1.195.7 0 1.266.534 1.266 1.195 0 .662-.566 1.196-1.266 1.196zM9.282 15.241l1.265-3.587h9.282l1.266 3.587H9.282z"/>
    </g>
</svg>
