<svg xmlns="http://www.w3.org/2000/svg" width="22" height="22" viewBox="0 0 22 22">
    <g fill="none" fill-rule="evenodd">
        <path d="M0 0h22v22H0z"/>
        <path fill="#8893D9" d="M19.086 2.914a3.664 3.664 0 0 0-2.61-1.08c-.984 0-1.912.382-2.609 1.08L3.41 13.371s0 .003-.003.004c-.074.075-.2.273-.239.423l-1.306 5.228a.914.914 0 0 0 .241.87l.001.001v.001c.228.227.558.32.87.242l5.23-1.308a1.16 1.16 0 0 0 .422-.24l.004-.002L19.087 8.134a3.663 3.663 0 0 0 1.08-2.61c0-.986-.383-1.912-1.08-2.61zM13.21 6.167l2.625 2.625-7.854 7.854-2.625-2.625 7.854-7.854zm-9.2 11.824l.546-2.177 1.632 1.633-2.177.544zM17.793 4.21c.7.701.7 1.924 0 2.625l-.66.66-2.627-2.626.661-.659c.702-.7 1.924-.701 2.626 0z"/>
    </g>
</svg>
