<svg xmlns="http://www.w3.org/2000/svg" width="20" height="19" viewBox="0 0 20 19">
    <g fill="none" fill-rule="evenodd">
        <ellipse cx="10" cy="9.5" fill="#FFF400" rx="10" ry="9.5"/>
        <path fill="#4A4A4A" d="M10.986 10.777H9.33l-.262-6.914h2.158l-.239 6.914zm.417 2.205c0 .42-.1.712-.301.875-.2.164-.522.246-.964.246-.483 0-.812-.092-.987-.275-.174-.183-.262-.465-.262-.846 0-.4.093-.689.278-.864.185-.176.509-.264.971-.264.473 0 .802.085.987.256.185.171.278.462.278.872z"/>
    </g>
</svg>
