<svg xmlns="http://www.w3.org/2000/svg" width="24" height="24" viewBox="0 0 24 24">
    <g fill="#526173" fill-rule="evenodd">
        <path d="M11.21 15.395a3.004 3.004 0 0 0 3.685-3.684l.904-.904a4.125 4.125 0 0 1-5.409 5.409l.82-.82zm-2.027-1.861l-.824.823a4.125 4.125 0 0 1 5.581-5.581l-.906.907a3 3 0 0 0-3.85 3.85zm-.72 4.609l.881-.882A8.607 8.607 0 0 0 12 17.7c2.338 0 4.711-1.068 6.979-2.87a20.586 20.586 0 0 0 2.521-2.38 20.586 20.586 0 0 0-2.521-2.38c-.47-.374-.944-.715-1.421-1.022l.849-.85C21.188 10.057 23 12.418 23 12.418s-4.925 6.416-11 6.416c-1.237 0-2.427-.266-3.537-.69zm-2.574-1.315C2.94 14.945 1 12.417 1 12.417S5.925 6 12 6c1.368 0 2.678.326 3.887.83l-.917.916C13.981 7.391 12.987 7.2 12 7.2c-2.338 0-4.711 1.068-6.979 2.87A20.586 20.586 0 0 0 2.5 12.45a20.586 20.586 0 0 0 2.521 2.38c.555.441 1.115.838 1.68 1.185l-.812.813zM20.027 3.736l.973.972L5.443 20.264l-.972-.972z"/>
    </g>
</svg>
