<svg xmlns="http://www.w3.org/2000/svg" xmlns:xlink="http://www.w3.org/1999/xlink" width="24" height="24" viewBox="0 0 24 24">
    <defs>
        <path id="a" d="M12 22C6.486 22 2 17.515 2 12 2 6.487 6.486 2 12 2s10 4.486 10 10c0 5.515-4.486 10-10 10zm6.47-5.299L7.474 5.707a1.002 1.002 0 0 0-.203-.157A7.957 7.957 0 0 1 12 4c4.411 0 8 3.589 8 8 0 1.755-.568 3.38-1.53 4.701zM16.7 18.47A7.957 7.957 0 0 1 12 20c-4.411 0-8-3.589-8-8 0-1.767.576-3.403 1.55-4.728.043.072.095.14.157.203l10.994 10.994z"/>
    </defs>
    <use fill="#D4D7DC" fill-rule="evenodd" xlink:href="#a"/>
</svg>
