<svg xmlns="http://www.w3.org/2000/svg" width="30" height="30" viewBox="0 0 30 30">
  <path fill="#FFF" fill-rule="evenodd" d="M20.5,22.2561466 C19.122,22.2561466 18,21.1172744 18,19.7185526 C18,18.3198308 19.122,17.1809586 20.5,17.1809586 C21.878,17.1809586 23,18.3198308 23,19.7185526 C23,21.1172744 21.878,22.2561466 20.5,22.2561466 M9.5,22.2561466 C8.122,22.2561466 7,21.1172744 7,19.7185526 C7,18.3198308 8.122,17.1809586 9.5,17.1809586 C10.878,17.1809586 12,18.3198308 12,19.7185526 C12,21.1172744 10.878,22.2561466 9.5,22.2561466 M24.956,18.9126128 L21.331,6.95343985 C20.976,5.78614662 19.929,5.00050752 18.726,5.00050752 C17.223,5.00050752 16,6.2418985 16,7.7675 L16,9.06065789 L14,9.06065789 L14,7.7675 C14,6.2418985 12.777,5.00050752 11.274,5.00050752 C10.071,5.00050752 9.024,5.78614662 8.669,6.95343985 L5.044,18.9126128 C5.015,19.0090414 5,19.1095301 5,19.2110338 L5,19.7185526 C5,22.2378759 7.019,24.2862218 9.5,24.2862218 C11.981,24.2862218 14,22.2378759 14,19.7185526 L14,15.1508835 L16,15.1508835 L16,19.7185526 C16,22.2378759 18.019,24.2862218 20.5,24.2862218 C22.981,24.2862218 25,22.2378759 25,19.7185526 L25,19.2110338 C25,19.1095301 24.985,19.0090414 24.956,18.9126128"/>
</svg>
