<svg xmlns="http://www.w3.org/2000/svg" width="30" height="30" viewBox="0 0 30 30">
  <g fill="#FFF" fill-rule="evenodd">
    <path d="M15.9995 18.0913912L13.9995 18.0913912C11.2425 18.0913912 8.9995 20.3038741 8.9995 23.0233639L8.9995 24.9961531 20.9995 24.9961531 20.9995 23.0233639C20.9995 20.3038741 18.7565 18.0913912 15.9995 18.0913912M11.3428 16.6387279C10.0938 14.9056327 10.2438 12.4860068 11.8178 10.9334218 13.5708 9.20229932 16.4268 9.20229932 18.1818 10.9334218 19.7558 12.4860068 19.9058 14.9056327 18.6568 16.6387279 19.2858 16.8942041 19.8678 17.2374694 20.3898 17.6527415 22.0918 15.1611088 21.8288 11.7432517 19.5958 9.53865986 17.0618 7.03814966 12.9378 7.04012245 10.4028 9.53865986 8.1708 11.7432517 7.9078 15.1611088 9.6098 17.6527415 10.1308 17.2374694 10.7138 16.8942041 11.3428 16.6387279"/>
    <path d="M8.5117,18.7503027 C7.5347,17.4157109 6.9997,15.8236701 6.9997,14.1458129 C6.9997,12.0378878 7.8327,10.0562211 9.3437,8.56577891 C12.4617,5.48921429 17.5367,5.48921429 20.6567,8.56577891 C23.4657,11.3375476 23.7367,15.6678197 21.4867,18.7493163 C21.9317,19.3046565 22.2897,19.9270714 22.5467,20.6017653 C25.9527,16.7321395 25.8007,10.8502687 22.0707,7.17003061 C18.1727,3.32506463 11.8277,3.32506463 7.9297,7.17003061 C6.0407,9.03332993 4.9997,11.5121395 4.9997,14.1458129 C4.9997,16.5466973 5.8717,18.8104728 7.4517,20.6027517 C7.7087,19.9290442 8.0667,19.3046565 8.5117,18.7503027"/>
    <path d="M14.9995,11.1866293 C13.3455,11.1866293 11.9995,12.5143163 11.9995,14.1458129 C11.9995,15.7782959 13.3455,17.1049966 14.9995,17.1049966 C16.6535,17.1049966 17.9995,15.7782959 17.9995,14.1458129 C17.9995,12.5143163 16.6535,11.1866293 14.9995,11.1866293"/>
  </g>
</svg>
