<svg xmlns="http://www.w3.org/2000/svg" width="30" height="30" viewBox="0 0 30 30">
  <path fill="#FFF" fill-rule="evenodd" d="M19.9388346,16.1659211 L16.8937218,16.1659211 L16.8937218,19.2110338 L12.8335714,19.2110338 L12.8335714,16.1659211 L9.78845865,16.1659211 L9.78845865,12.1057707 L12.8335714,12.1057707 L12.8335714,9.06065789 L16.8937218,9.06065789 L16.8937218,12.1057707 L19.9388346,12.1057707 L19.9388346,16.1659211 Z M21.9689098,5.00050752 L7.75838346,5.00050752 C6.63879699,5.00050752 5.72830827,5.91201128 5.72830827,7.03058271 L5.72830827,21.241109 C5.72830827,22.3606955 6.63879699,23.2711842 7.75838346,23.2711842 L21.9689098,23.2711842 C23.0884962,23.2711842 23.998985,22.3606955 23.998985,21.241109 L23.998985,7.03058271 C23.998985,5.91201128 23.0884962,5.00050752 21.9689098,5.00050752 L21.9689098,5.00050752 Z"/>
</svg>
