<svg xmlns="http://www.w3.org/2000/svg" width="30" height="30" viewBox="0 0 30 30">
  <g fill="#FFF" fill-rule="evenodd">
    <polygon points="7 10.397 5 10.397 5 18.333 7 18.333"/>
    <path d="M12.5981,21.1801587 L10.0001,20.5353175 L10.0001,18.247619 L14.1271,19.1573413 L12.5981,21.1801587 Z M23.0001,6.42916667 L23.0001,7.61865079 L8.0001,10.9242063 L8.0001,21.310119 C8.0001,21.7654762 8.3121,22.1623016 8.7571,22.2734127 L12.7571,23.2654762 C12.8381,23.2853175 12.9191,23.294246 13.0001,23.294246 C13.3101,23.294246 13.6081,23.1513889 13.8001,22.8974206 L16.2701,19.6305556 L23.0001,21.1136905 L23.0001,22.3021825 L25.0001,22.3021825 L25.0001,6.42916667 L23.0001,6.42916667 Z"/>
  </g>
</svg>
