<svg xmlns="http://www.w3.org/2000/svg" xmlns:xlink="http://www.w3.org/1999/xlink" width="30" height="30" viewBox="0 0 30 30">
  <defs>
    <polygon id="icon-incident-violence-white-sml-a" points="6.769 0 4.562 9.762 0 9.762 2.19 0"/>
  </defs>
  <g fill="none" fill-rule="evenodd" transform="translate(2.143 7.143)">
    <path fill="#FFF" d="M19.6680685,2.14285714 L23.9408867,2.14285714 C24.4305973,2.14285714 24.8275862,2.53984603 24.8275862,3.02955665 L24.8275862,4.82758621 C24.8275862,5.31729682 24.4305973,5.71428571 23.9408867,5.71428571 L24.8275862,5.71428571 C25.3172968,5.71428571 25.7142857,6.11127461 25.7142857,6.60098522 L25.7142857,8.39901478 C25.7142857,8.88872539 25.3172968,9.28571429 24.8275862,9.28571429 L23.9408867,9.28571429 C24.4305973,9.28571429 24.8275862,9.68270318 24.8275862,10.1724138 L24.8275862,11.9704433 C24.8275862,12.460154 24.4305973,12.8571429 23.9408867,12.8571429 L22.1674877,12.8571429 C22.6571983,12.8571429 23.0541872,13.2541317 23.0541872,13.7438424 L23.0541872,14.6490148 C23.0541872,15.1387254 22.6571983,15.5357143 22.1674877,15.5357143 L21.2401729,15.5357143 L13.8276142,15.536542 L11.0838317,13.668736 L5.98640693,13.668736 L8.15687609,3.90764509 L10.9572107,3.90764509 L14.0909997,0.357142857 L17.3867636,0.357142857 L17.8946695,0.890168068 L17.8946695,7.36467247 C16.5122823,7.27444493 15.9605911,6.96394529 15.9605911,6.59527937 L15.9605911,4.7694391 C15.9605911,4.27632772 15.5636022,3.87658196 15.0738916,3.87658196 C14.584181,3.87658196 14.1871921,4.27632772 14.1871921,4.7694391 L14.1871921,6.59527937 C14.1871921,8.40769227 15.8758361,9.17685045 18.781369,9.17685045 C19.2710796,9.17685045 19.6680685,8.77710469 19.6680685,8.28399331 L19.6680685,2.14285714 Z"/>
    <g transform="translate(0 3.929)">
      <mask id="icon-incident-violence-white-sml-b" fill="#fff">
        <use xlink:href="#icon-incident-violence-white-sml-a"/>
      </mask>
      <g stroke="#FFF" stroke-width="1.773" mask="url(#icon-incident-violence-white-sml-b)">
        <g transform="translate(0 .893)">
          <rect width="6.207" height="1" x=".887" y=".887"/>
          <rect width="5.32" height="1" x=".887" y="3.565"/>
          <rect width="4.433" height="1" x=".887" y="6.244"/>
        </g>
      </g>
    </g>
  </g>
</svg>
