<?xml version="1.0" encoding="utf-8"?>
<!-- Generator: Adobe Illustrator 21.0.2, SVG Export Plug-In . SVG Version: 6.00 Build 0)  -->
<svg version="1.1" id="Layer_1" xmlns="http://www.w3.org/2000/svg" xmlns:xlink="http://www.w3.org/1999/xlink" x="0px" y="0px"
	 viewBox="0 0 30 30" style="enable-background:new 0 0 30 30;" xml:space="preserve">
<style type="text/css">
	.st0{fill:#4A4A4A;}
</style>
<path class="st0" d="M21.5,13.9h-0.9v-2.5C20.6,8.4,18.1,6,15,6s-5.6,2.4-5.6,5.3v2.5H8.5c-1,0-1.8,0.8-1.8,1.7v6.8
	c0,0.9,0.8,1.7,1.8,1.7h13c1,0,1.8-0.8,1.8-1.7v-6.8C23.3,14.6,22.5,13.9,21.5,13.9z M17.7,13.9h-5.3v-2.5c0-1.4,1.2-2.5,2.7-2.5
	s2.7,1.1,2.7,2.5V13.9z"/>
</svg>
