<svg width="22" height="22" viewBox="0 0 22 22" fill="none" xmlns="http://www.w3.org/2000/svg">
<path d="M11.541 20.4595C16.2354 20.4595 20.041 16.6539 20.041 11.9595C20.041 7.26505 16.2354 3.45947 11.541 3.45947C6.8466 3.45947 3.04102 7.26505 3.04102 11.9595C3.04102 16.6539 6.8466 20.4595 11.541 20.4595Z" stroke="black" stroke-width="2" stroke-linecap="round" stroke-linejoin="round"/>
<path d="M9.06787 9.40913C9.26771 8.84104 9.66215 8.36202 10.1813 8.05689C10.7005 7.75176 11.3109 7.64022 11.9045 7.74203C12.498 7.84384 13.0364 8.15242 13.4242 8.61313C13.812 9.07383 14.0243 9.65692 14.0234 10.2591C14.0234 11.9591 11.4734 12.8091 11.4734 12.8091" stroke="black" stroke-width="2" stroke-linecap="round" stroke-linejoin="round"/>
<path d="M11.5413 16.2095H11.5498" stroke="black" stroke-width="2" stroke-linecap="round" stroke-linejoin="round"/>
</svg>
