<svg width="22" height="20" viewBox="0 0 22 20" fill="none" xmlns="http://www.w3.org/2000/svg">
<path d="M11 -2.04867e-05C9.46791 -0.0027924 7.95565 0.346518 6.57996 1.02095C5.20428 1.69538 4.00196 2.6769 3.0658 3.88974C2.12964 5.10258 1.48469 6.51432 1.18072 8.01597C0.87675 9.51763 0.921893 11.0691 1.31266 12.5505C1.70344 14.0319 2.42938 15.4038 3.43448 16.5601C4.43957 17.7165 5.69693 18.6264 7.10951 19.2197C8.52208 19.813 10.0521 20.0738 11.5815 19.982C13.1108 19.8901 14.5986 19.4481 15.93 18.69H16.05C17.9753 17.594 19.4821 15.8897 20.334 13.8447C21.1858 11.7997 21.3345 9.52967 20.7566 7.39101C20.1788 5.25235 18.9071 3.36611 17.1412 2.02839C15.3754 0.690673 13.2153 -0.022796 11 -2.04867e-05ZM12 2.06998C13.76 2.29317 15.3959 3.09507 16.6504 4.34957C17.9049 5.60406 18.7068 7.23996 18.93 8.99998H12V2.06998ZM11 18C8.97453 17.9862 7.02968 17.2045 5.55796 15.8128C4.08624 14.4211 3.19723 12.5229 3.07033 10.5014C2.94342 8.47981 3.58808 6.48537 4.87421 4.92054C6.16033 3.35571 7.99216 2.33699 10 2.06998V9.99998C10.004 10.1197 10.0276 10.238 10.07 10.35V10.5L14.07 17.37C13.0998 17.7853 12.0554 17.9996 11 18ZM15.83 16.36L12.73 11H18.93C18.7954 12.0546 18.4519 13.0717 17.9196 13.9921C17.3874 14.9124 16.677 15.7174 15.83 16.36Z" fill="black"/>
</svg>
