<svg xmlns="http://www.w3.org/2000/svg" width="157" height="25" viewBox="0 0 157 25">
    <g fill="#FFF" fill-rule="evenodd">
        <path d="M.517 3.843h4.885v7.175h6.255V3.843h4.885v19.099h-4.885v-7.64H5.402v7.64H.517v-19.1zm25.59 12.466h4.005l-1.964-6.53h-.078l-1.964 6.53zm-1.345 3.871l-1.008 2.762h-5.247l7.677-19.1h3.85l7.6 19.1h-5.299l-.93-2.762h-6.643zM39.728 3.843h4.885v14.814h5.66v4.285H39.729v-19.1zm16.516 9.498c0 .74.121 1.45.362 2.129.241.68.59 1.282 1.047 1.807a5.23 5.23 0 0 0 1.654 1.264c.646.318 1.383.478 2.21.478.862 0 1.616-.177 2.262-.53a5.018 5.018 0 0 0 1.602-1.354c.423-.551.741-1.153.957-1.807.215-.654.323-1.29.323-1.91 0-.62-.108-1.26-.323-1.923a6.206 6.206 0 0 0-.957-1.832 4.908 4.908 0 0 0-1.615-1.368c-.655-.353-1.422-.53-2.3-.53-.845 0-1.594.164-2.25.491a4.973 4.973 0 0 0-1.64 1.29 5.636 5.636 0 0 0-.996 1.794 6.208 6.208 0 0 0-.336 2zM52.11 9.547c.258-.62.637-1.282 1.137-1.988a9.735 9.735 0 0 1 1.9-1.974c.767-.61 1.671-1.114 2.714-1.51 1.042-.396 2.236-.593 3.58-.593 1.464 0 2.817.266 4.058.8a10.05 10.05 0 0 1 3.205 2.155 9.743 9.743 0 0 1 2.094 3.161c.5 1.205.75 2.47.75 3.794 0 1.325-.25 2.59-.75 3.794a9.743 9.743 0 0 1-2.094 3.162 10.05 10.05 0 0 1-3.205 2.155c-1.24.533-2.602.8-4.084.8-1.5 0-2.87-.275-4.11-.826-1.24-.55-2.3-1.278-3.18-2.18a9.788 9.788 0 0 1-2.041-3.098 9.235 9.235 0 0 1-.724-3.574c0-.637.052-1.3.155-1.988a8.894 8.894 0 0 1 .595-2.09z"/>
        <text font-family="ClearSans, Clear Sans" font-size="10.2">
            <tspan x="79.793" y="11.8">EVENT</tspan> <tspan x="79.793" y="23.8">MANAGEMENT</tspan>
        </text>
    </g>
</svg>
