<svg xmlns="http://www.w3.org/2000/svg" width="30" height="30" viewBox="0 0 30 30">
  <path fill="#FFF" fill-rule="evenodd" d="M11.3752415,1.5837704 L20.1800682,17.5163139 C20.4472007,17.9996964 20.2718953,18.6081091 19.7885128,18.8752415 C19.6404337,18.9570747 19.4740131,19 19.3048267,19 L1.69517333,19 C1.14288858,19 0.695173334,18.5522847 0.695173334,18 C0.695173334,17.8308135 0.738098649,17.6643929 0.819931799,17.5163139 L9.62475846,1.5837704 C9.89189093,1.10038785 10.5003036,0.925082511 10.9836861,1.19221497 C11.1484598,1.28327413 11.2841824,1.41899669 11.3752415,1.5837704 Z M11.4066557,12.9921875 L11.6185697,6.5390625 L9.70450722,6.5390625 L9.93692909,12.9921875 L11.4066557,12.9921875 Z M11.7757963,15.0498047 C11.7757963,14.6669903 11.6937658,14.3958341 11.5297025,14.2363281 C11.3656392,14.0768221 11.0739755,13.9970703 10.6547025,13.9970703 C10.2445442,13.9970703 9.95743772,14.0791007 9.7933744,14.2431641 C9.62931108,14.4072274 9.54728065,14.6761049 9.54728065,15.0498047 C9.54728065,15.4052752 9.62475384,15.6684562 9.77970253,15.8393555 C9.93465122,16.0102548 10.226315,16.0957031 10.6547025,16.0957031 C11.0466316,16.0957031 11.3314595,16.0193693 11.5091947,15.8666992 C11.68693,15.7140292 11.7757963,15.4417337 11.7757963,15.0498047 Z" transform="translate(5.143 3.571)"/>
</svg>
