<svg xmlns="http://www.w3.org/2000/svg" width="24" height="24" viewBox="0 0 24 24">
    <path fill="#D4D7DC" fill-rule="nonzero" d="M16.906 6.725c.555.346.555 1.09 0 1.436a.897.897 0 0 1-.924 0c-.555-.347-.555-1.09 0-1.436.274-.17.65-.17.924 0zm-1.815-1.43a2.51 2.51 0 0 0 0 4.296c.82.51 1.887.51 2.706 0a2.51 2.51 0 0 0 0-4.296 2.582 2.582 0 0 0-2.706 0zm5.734 7.354a6.65 6.65 0 0 0-.283-9.8C17.884.52 13.76.606 11.2 3.04a6.635 6.635 0 0 0-1.848 6.57l-2.189 2.142a1.953 1.953 0 0 0-.58 1.216l-.1 1.08-.58.05A1.978 1.978 0 0 0 4.1 15.878l-.051.552-.654.059a1.98 1.98 0 0 0-1.782 1.622l-.426 2.433c-.225 1.29.86 2.423 2.167 2.288l1.759-.18c.45-.047.871-.244 1.194-.56l7.887-7.716c2.34.62 4.87-.003 6.631-1.726zm-1.178-1.204c-1.426 1.395-3.53 1.836-5.41 1.183l-.492-.171-.373.364-8.243 8.066a.317.317 0 0 1-.189.087l-1.759.182c-.206.02-.365-.146-.334-.323l.425-2.433a.296.296 0 0 1 .272-.234l2.052-.183.065-.699.116-1.25a.293.293 0 0 1 .275-.256l1.978-.176.065-.699.165-1.779a.269.269 0 0 1 .082-.167l2.946-2.883-.185-.51a4.951 4.951 0 0 1 1.258-5.302c1.93-1.834 5.069-1.9 7.07-.146a4.965 4.965 0 0 1 .216 7.329z"/>
</svg>
