<svg width="53" height="56" viewBox="0 0 53 56" fill="white" xmlns="http://www.w3.org/2000/svg">
<path fill-rule="evenodd" clip-rule="evenodd" d="M42.1534 14.2684C39.9658 7.72005 33.7841 3 26.5 3C19.0318 3 12.7224 7.96165 10.6884 14.7684C11.4881 15.4099 12 16.3951 12 17.5V25.5C12 27.433 10.433 29 8.5 29C6.567 29 5 27.433 5 25.5V17.5C5 15.8195 6.18432 14.4157 7.76383 14.0776C10.113 5.94624 17.6121 0 26.5 0C35.5542 0 43.1672 6.17083 45.3626 14.5362C46.3463 15.1558 47 16.2515 47 17.5V25.5C47 27.433 45.433 29 43.5 29C42.9372 29 42.4055 28.8672 41.9344 28.6312C39.2216 30.1039 35.5054 31.5315 31.5091 31.6451C30.973 32.4612 30.0494 33 29 33H25C23.3431 33 22 31.6569 22 30C22 28.3431 23.3431 27 25 27H29C30.1661 27 31.1769 27.6653 31.6733 28.6371C34.8142 28.4964 37.8002 27.3987 40.0746 26.2224C40.0257 25.9893 40 25.7477 40 25.5V17.5C40 16.0442 40.8888 14.796 42.1534 14.2684ZM36.6007 26.5267C35.3481 26.8437 34.0426 27.0715 32.7113 27.1677C32.0782 25.9565 30.8099 25.1299 29.3485 25.1299H24.2922C22.1978 25.1299 20.5 26.8277 20.5 28.9221C20.5 29.7205 20.7468 30.4613 21.1682 31.0724C16.3811 29.1547 13 24.4722 13 19C13 11.8203 18.8203 6 26 6C33.1797 6 39 11.8203 39 19C39 21.8051 38.1116 24.4027 36.6007 26.5267ZM0 56C0 44.402 9.40202 35 21 35H32C43.598 35 53 44.402 53 56H0Z" fill="white"/>
</svg>
