<svg xmlns="http://www.w3.org/2000/svg" xmlns:xlink="http://www.w3.org/1999/xlink" width="30" height="31" viewBox="0 0 30 31">
    <defs>
        <path id="a" d="M14.748 2.252a2.832 2.832 0 0 0-2.016-.835c-.761 0-1.478.296-2.016.835l-8.082 8.08s0 .003-.002.003a.903.903 0 0 0-.185.327l-1.009 4.04c-.06.241.01.497.186.672l.001.001c.176.176.431.248.673.188l4.04-1.011a.896.896 0 0 0 .33-.187l8.081-8.08a2.83 2.83 0 0 0 .834-2.017c0-.761-.296-1.477-.834-2.016zm-4.54 2.514l2.028 2.028-6.07 6.069-2.027-2.028 6.069-6.07zm-7.109 9.136l.422-1.682 1.26 1.262-1.682.42zM13.75 3.254c.54.542.54 1.487 0 2.029l-.51.51-2.03-2.03.51-.509c.542-.541 1.487-.542 2.03 0z"/>
    </defs>
    <g fill="none" fill-rule="evenodd">
        <ellipse cx="15" cy="15.381" fill="#FFF400" rx="15" ry="15.381"/>
        <g transform="translate(7 6.762)">
            <path d="M0 0h17v17H0z"/>
            <use fill="#4A4A4A" stroke="#4A4A4A" stroke-width=".5" xlink:href="#a"/>
        </g>
    </g>
</svg>
