<svg xmlns="http://www.w3.org/2000/svg" width="17" height="17" fill="none" viewBox="0 0 17 17">
    <g fill="#4A4A4A" clip-path="url(#clip0)">
        <path d="M8.8 4.2c0-.1-.1-.2-.1-.2-.1-.1-.2-.2-.3-.2h-.3c-.2 0-.4.1-.5.2-.1.2-.2.3-.2.5v4.3c0 .1 0 .2.1.3.1.1.1.2.2.2l2.2 2.2.2.2c.1 0 .2.1.3.1h.3c.1 0 .2-.1.3-.2.1-.1.1-.2.2-.3V11c0-.1 0-.2-.1-.3 0-.1-.1-.2-.2-.2l-2-2v-4c0-.1 0-.2-.1-.3z"/>
        <path d="M16.7 8.1c0-.1-.1-.2-.2-.2-.1-.1-.2-.1-.2-.2-.2-.1-.4-.1-.6 0-.1 0-.2.1-.2.2-.1.1-.1.2-.2.2 0 .1-.1.2-.1.3 0 3.8-3.1 6.9-6.9 6.9-3.8 0-6.9-3.1-6.9-6.9 0-3.8 3.1-6.9 6.9-6.9 1.8 0 3.4.6 4.7 1.8h-1c-.1 0-.2 0-.3.1-.1 0-.2.1-.2.2l-.2.2c0 .1-.1.2-.1.3 0 .1 0 .2.1.3 0 .1.1.2.2.2.1.1.2.1.2.2s.2.1.3.1h2.7c.2 0 .3-.1.4-.2.1-.1.2-.3.2-.4V1.4c0-.1 0-.2-.1-.3 0-.1-.1-.2-.2-.3-.1-.1-.2-.1-.3-.2h-.3c-.2 0-.3.1-.5.3.1.1.1.3.1.5v.7C12.4.7 10.5 0 8.4 0 3.8 0 0 3.8 0 8.4c0 4.6 3.8 8.4 8.4 8.4 4.6 0 8.4-3.8 8.4-8.4 0-.1-.1-.2-.1-.3z"/>
    </g>
    <defs>
        <clipPath id="clip0">
            <path fill="#fff" d="M0 0H16.8V16.8H0z"/>
        </clipPath>
    </defs>
</svg>
