<svg width="32" height="44" viewBox="0 0 32 44" xmlns="http://www.w3.org/2000/svg">
<path fill="#FFF" fill-rule="evenodd" d="M28 3.5C28 5.43262 26.4326 7 24.5 7C22.5674 7 21 5.43262 21 3.5C21 1.56738 22.5674 0 24.5 0C26.4326 0 28 1.56738 28 3.5ZM29 8H21L20.9092 8.00195C20.8662 8.00391 20.8242 8.00684 20.7822 8.01172C20.6748 8.02344 20.5684 8.04395 20.4648 8.07227C20.3047 8.11719 20.1514 8.18164 20.0078 8.26367C19.7734 8.39746 19.5664 8.5791 19.4004 8.7998L14.375 15.5C14.166 15.7783 13.7734 15.8418 13.4883 15.6416L10.7344 13.7139L12.3076 5.68262C12.335 5.54688 12.3037 5.41309 12.2314 5.30664C12.1602 5.20117 12.0488 5.12207 11.9131 5.0957C11.7461 5.06348 11.582 5.11816 11.4688 5.22852C11.4355 5.26074 11.4072 5.29785 11.3838 5.33789C11.3574 5.38379 11.3379 5.43555 11.3271 5.49023L9.83887 13.0869L9.77148 13.04C9.34863 12.7441 8.76367 12.8535 8.47754 13.2842C8.20898 13.6865 8.29785 14.2295 8.68262 14.5244L9.44238 15.1084L7.30859 26H0V36H3V31H8.25L10 26H8.32617L10.3271 15.7891L12.8936 17.7637C13.335 18.1035 13.8721 18.2305 14.3828 18.1611C14.8945 18.0908 15.3799 17.8232 15.7139 17.377L19.5 12.3164C19.6602 12.1025 20 12.2158 20 12.4834V41.0713C20 41.3594 20.0635 41.6328 20.1768 41.8779C20.3203 42.1904 20.5459 42.457 20.8242 42.6523C21.1367 42.8711 21.5176 43 21.9287 43C22.9941 43 23.8574 42.1367 23.8574 41.0713V26.3037C23.8574 26.1318 23.9111 25.9727 24.002 25.8428C24.1475 25.6357 24.3887 25.5 24.6611 25.5C25.1045 25.5 25.4639 25.8594 25.4639 26.3037V41.2324C25.4639 42.209 26.2559 43 27.2324 43C28.209 43 29 42.209 29 41.2324V12.1484C29 12.0742 29.0156 12.0049 29.0449 11.9424C29.0557 11.918 29.0684 11.8955 29.083 11.874C29.1006 11.8467 29.1201 11.8213 29.1426 11.7988C29.2334 11.7061 29.3604 11.6484 29.5 11.6484C29.7764 11.6484 30 11.8721 30 12.1484V25.5C30 26.0527 30.4473 26.5 31 26.5C31.1904 26.5 31.3682 26.4473 31.5195 26.3545C31.6875 26.252 31.8232 26.1016 31.9072 25.9209C31.9668 25.793 32 25.6504 32 25.5V10C32 8.89551 31.1045 8 30 8H29ZM14 32H4V41H15V37.5H14.5L14 32ZM5.69629 43.7188C5.51562 43.8926 5.27051 44 5 44C4.44727 44 4 43.5527 4 43C4 42.4473 4.44727 42 5 42C5.55273 42 6 42.4473 6 43C6 43.2822 5.88379 43.5371 5.69629 43.7188ZM14 44C14.5527 44 15 43.5527 15 43C15 42.4473 14.5527 42 14 42C13.4473 42 13 42.4473 13 43C13 43.5527 13.4473 44 14 44Z" />
</svg>
