<svg xmlns="http://www.w3.org/2000/svg" width="30" height="30" viewBox="0 0 30 30">
  <g fill="#FFF" fill-rule="evenodd">
    <polygon points="17.586 9.933 14.414 9.933 6.414 17.824 7 17.824 7 24.729 9 24.729 9 17.824 9.586 17.824"/>
    <path d="M22 9.93295918L22 8.67431973C22.595 8.33302721 23 7.70469388 23 6.97377551 23 5.88479592 22.105 5.00098639 21 5.00098639 19.895 5.00098639 19 5.88479592 19 6.97377551 19 7.70469388 19.405 8.33302721 20 8.67431973L20 10.3413265 12.414 17.8241156 15.586 17.8241156 23.586 9.93295918 22 9.93295918zM18.4141 17.8241156L21.0001 17.8241156 21.0001 24.7288776 23.0001 24.7288776 23.0001 17.8241156 24.0001 17.8241156C24.5521 17.8241156 25.0001 17.3822109 25.0001 16.8377211L25.0001 11.3277211 18.4141 17.8241156zM10 9.93295918L10 8.67431973C10.595 8.33302721 11 7.70469388 11 6.97377551 11 5.88479592 10.105 5.00098639 9 5.00098639 7.895 5.00098639 7 5.88479592 7 6.97377551 7 7.70469388 7.405 8.33302721 8 8.67431973L8 9.93295918 6 9.93295918C5.448 9.93295918 5 10.3758503 5 10.9193537L5 16.4293537 11.586 9.93295918 10 9.93295918z"/>
  </g>
</svg>
