<svg xmlns="http://www.w3.org/2000/svg" width="24" height="24" viewBox="0 0 24 24">
    <path fill="#FFF" fill-rule="evenodd" d="M16.173 10.5c1.723 0 3.104-1.452 3.104-3.25S17.897 4 16.173 4c-1.723 0-3.115 1.452-3.115 3.25s1.392 3.25 3.115 3.25zm-8.306 0c1.724 0 3.105-1.452 3.105-3.25S9.59 4 7.867 4C6.144 4 4.753 5.452 4.753 7.25s1.391 3.25 3.114 3.25zm0 2.167C5.448 12.667.6 13.934.6 16.458v2.709h14.535v-2.709c0-2.524-4.849-3.791-7.268-3.791zm8.306 0c-.301 0-.644.021-1.007.054 1.204.91 2.045 2.134 2.045 3.737v2.709h6.23v-2.709c0-2.524-4.85-3.791-7.268-3.791z"/>
</svg>
