<svg xmlns="http://www.w3.org/2000/svg" width="30" height="30" viewBox="0 0 30 30">
  <path fill="#FFF" fill-rule="evenodd" d="M9.9492,16.2862143 C9.9492,14.4452143 11.1082,13.2862143 12.9492,13.2862143 C14.7902,13.2862143 15.9492,14.4452143 15.9492,16.2862143 L9.9492,16.2862143 Z M12.9492,8.28621429 C14.0532,8.28621429 14.9492,9.18221429 14.9492,10.2862143 C14.9492,11.3902143 14.0532,12.2862143 12.9492,12.2862143 C11.8442,12.2862143 10.9492,11.3902143 10.9492,10.2862143 C10.9492,9.18221429 11.8442,8.28621429 12.9492,8.28621429 L12.9492,8.28621429 Z M24.4142,20.8722143 L19.8872,16.3452143 C20.6072,15.1272143 21.0002,13.7382143 21.0002,12.2862143 C21.0002,10.1492143 20.1672,8.14021429 18.6562,6.63021429 C17.1452,5.11921429 15.1362,4.28621429 13.0002,4.28621429 C10.8632,4.28621429 8.8542,5.11921429 7.3442,6.62921429 C5.8322,8.14021429 5.0002,10.1492143 5.0002,12.2862143 C5.0002,14.4232143 5.8322,16.4322143 7.3442,17.9422143 C8.8542,19.4542143 10.8632,20.2862143 13.0002,20.2862143 C14.4522,20.2862143 15.8412,19.8932143 17.0582,19.1732143 L21.5862,23.7002143 C21.9642,24.0782143 22.4662,24.2862143 23.0002,24.2862143 C23.5342,24.2862143 24.0362,24.0782143 24.4142,23.7002143 C25.1942,22.9212143 25.1942,21.6522143 24.4142,20.8722143 L24.4142,20.8722143 Z"/>
</svg>
