<svg width="20" height="20" viewBox="0 0 20 20" fill="none" xmlns="http://www.w3.org/2000/svg">
<path d="M5 18H2V17.9C2 17.4 2.4 17 2.9 17C4.3 17 5.5 16.1 5.9 14.8C6.3 13.2 5.4 11.5 3.8 11.1C2.5 10.7 1.1 11.3 0.4 12.5C0.1 13 0.3 13.6 0.8 13.9C1.3 14.2 1.9 14 2.2 13.5C2.5 13 3.1 12.9 3.6 13.2C3.7 13.3 3.8 13.3 3.8 13.4C4 13.7 4 14 4 14.3C3.8 14.7 3.4 15 3 15C1.3 15 0 16.3 0 17.9V19C0 19.6 0.4 20 1 20H5C5.6 20 6 19.6 6 19C6 18.4 5.6 18 5 18ZM9 5H19C19.6 5 20 4.6 20 4C20 3.4 19.6 3 19 3H9C8.4 3 8 3.4 8 4C8 4.6 8.4 5 9 5ZM5 7H4V1C4 0.4 3.6 0 3 0C2.4 0 2 0.4 2 1V2H1C0.4 2 0 2.4 0 3C0 3.6 0.4 4 1 4H2V7H1C0.4 7 0 7.4 0 8C0 8.6 0.4 9 1 9H5C5.6 9 6 8.6 6 8C6 7.4 5.6 7 5 7ZM19 14H9C8.4 14 8 14.4 8 15C8 15.6 8.4 16 9 16H19C19.6 16 20 15.6 20 15C20 14.4 19.6 14 19 14Z" fill="black"/>
</svg>
