<?xml version="1.0" encoding="utf-8"?>
<!-- Generator: Adobe Illustrator 21.0.2, SVG Export Plug-In . SVG Version: 6.00 Build 0)  -->
<svg version="1.1" id="Layer_1" xmlns="http://www.w3.org/2000/svg" xmlns:xlink="http://www.w3.org/1999/xlink" x="0px" y="0px"
	 viewBox="0 0 30 30" style="enable-background:new 0 0 30 30;" xml:space="preserve">
<style type="text/css">
	.st0{fill:#4A4A4A;}
</style>
<path class="st0" d="M19,17.9c0.4,0.2,0.7,0.7,0.7,1.2v6.6c0,0.8-0.6,1.4-1.4,1.4c-0.8,0-1.4-0.6-1.4-1.4v-5.8l-3.3-1.9v3.5
	c0,0.8-0.7,1.5-1.5,1.5H6.4c-0.8,0-1.5-0.7-1.5-1.5c0-0.8,0.7-1.5,1.5-1.5h4V16c0-0.2,0-0.3,0.1-0.5l4.3-6.8h-4.1l-1.3,2.2
	c-0.3,0.5-1,0.7-1.5,0.4c-0.5-0.3-0.7-1-0.4-1.5l1.7-2.7c0.2-0.3,0.6-0.5,1-0.5h5.6c0.3,0,0.6,0.1,0.8,0.3l0.9,0.6
	c-0.3-0.5-0.5-1-0.5-1.6c0-1.5,1.3-2.8,2.9-2.8c1.6,0,2.9,1.2,2.9,2.8s-1.3,2.8-2.9,2.8c-0.2,0-0.4,0-0.6-0.1L20,9
	c0.4,0.2,0.7,0.5,0.7,1v3.3H24c0.6,0,1.1,0.5,1.1,1.1c0,0.6-0.5,1.1-1.1,1.1h-4.4c-0.6,0-1.1-0.5-1.1-1.1v-2.3L15.8,16L19,17.9z"/>
</svg>
