<svg xmlns="http://www.w3.org/2000/svg" width="31" height="44" viewBox="0 0 31 44">
    <g fill="none" fill-rule="evenodd">
        <path fill="#3A4BC1" fill-rule="nonzero" d="M30.377 15.247C30.377 6.823 23.58 0 15.188 0 6.797 0 0 6.823 0 15.247 0 26.682 15.188 43.2 15.188 43.2s15.189-16.518 15.189-27.953z"/>
        <path fill="#FFF" d="M15.188 25.412l-.08-.023c-5.902-1.644-7.256-5.601-7.467-6.378l-.047-.172.154-.105c.772-.53 1.242-1.38 1.255-2.276 0-1.832-.507-2.56-.725-2.79l-.113-.117 1.116-2.872.27.1c.723.27 1.486.41 2.267.418a5.467 5.467 0 0 0 3.205-.92l.165-.112.165.111c.923.627 2.054.95 3.2.921a6.682 6.682 0 0 0 2.273-.418l.27-.1 1.115 2.872-.112.118c-.218.228-.726.957-.726 2.79.014.896.483 1.747 1.256 2.275l.153.105-.046.172c-.209.776-1.55 4.73-7.468 6.378l-.08.023z"/>
        <path fill="#3A4BC1" d="M15.188 18.833l2.347 1.496-.623-2.82 2.073-1.898-2.73-.245-1.067-2.66-1.067 2.66-2.73.245 2.073 1.898-.622 2.82z"/>
    </g>
</svg>
