<svg xmlns="http://www.w3.org/2000/svg" width="54" height="38" viewBox="0 0 54 38">
  <g fill="none" fill-rule="evenodd">
    <g transform="translate(12)">
      <path fill="#000" fill-opacity=".1" d="M26.0484535,42.2110874 C34.8976342,33.5873362 39.3222245,26.8215578 39.3222245,21.9137524 C39.3222245,14.5520443 33.3793548,8.58420077 26.0484535,8.58420077 C18.7175522,8.58420077 12.7746824,14.5520443 12.7746824,21.9137524 C12.7746824,26.8215578 17.1992728,33.5873362 26.0484535,42.2110874 Z" transform="rotate(41 26.048 25.398)"/>
      <path fill="#2AD587" d="M15,38 C25,28.2547461 30,20.609091 30,15.0630348 C30,6.74395038 23.2842712,0 15,0 C6.71572875,0 0,6.74395038 0,15.0630348 C0,20.609091 5,28.2547461 15,38 Z"/>
    </g>
    <path fill="#FFF" d="M31.6666667,16.1666667 L29.1666667,16.1666667 L29.1666667,18.6666667 L25.8333333,18.6666667 L25.8333333,16.1666667 L23.3333333,16.1666667 L23.3333333,12.8333333 L25.8333333,12.8333333 L25.8333333,10.3333333 L29.1666667,10.3333333 L29.1666667,12.8333333 L31.6666667,12.8333333 L31.6666667,16.1666667 Z M33.3333333,7 L21.6666667,7 C20.7475,7 20,7.74833333 20,8.66666667 L20,20.3333333 C20,21.2525 20.7475,22 21.6666667,22 L33.3333333,22 C34.2525,22 35,21.2525 35,20.3333333 L35,8.66666667 C35,7.74833333 34.2525,7 33.3333333,7 L33.3333333,7 Z"/>
  </g>
</svg>
