<svg xmlns="http://www.w3.org/2000/svg" width="24" height="24" viewBox="0 0 24 24">
    <path fill="#526173" fill-rule="evenodd" d="M12 15.5a3 3 0 1 1 0-6 3 3 0 0 1 0 6m0 1.042a4.125 4.125 0 1 0 0-8.251 4.125 4.125 0 0 0 0 8.25m0 2.292c-6.075 0-11-6.416-11-6.416S5.925 6 12 6s11 6.417 11 6.417-4.925 6.416-11 6.416m9.168-6.746a20.586 20.586 0 0 0-2.19-2.018C16.712 8.27 14.339 7.2 12 7.2s-4.711 1.068-6.979 2.87A20.586 20.586 0 0 0 2.5 12.45a20.586 20.586 0 0 0 2.521 2.38C7.29 16.633 9.661 17.7 12 17.7c2.338 0 4.711-1.068 6.979-2.87a20.586 20.586 0 0 0 2.521-2.38 17.131 17.131 0 0 0-.332-.363"/>
</svg>
